<?xml version="1.0" standalone="no"?>
<svg viewBox="0 0 200 200" xmlns="http://www.w3.org/2000/svg">
  <path fill="#12464C" d="M39.4,-65.5C51.8,-61,63.3,-52.1,72.3,-40.4C81.3,-28.8,87.9,-14.4,87.3,-0.4C86.6,13.6,78.8,27.3,68.7,37.2C58.7,47.1,46.5,53.2,34.7,59.7C22.9,66.1,11.4,72.8,0.1,72.7C-11.3,72.5,-22.5,65.5,-32.8,58.2C-43.1,50.9,-52.5,43.3,-58.7,33.6C-64.8,23.8,-67.8,11.9,-67.5,0.1C-67.3,-11.6,-63.8,-23.2,-59.3,-35.8C-54.8,-48.4,-49.1,-61.9,-39.1,-67.7C-29,-73.6,-14.5,-71.7,-0.5,-70.8C13.5,-69.9,26.9,-69.9,39.4,-65.5Z" transform="translate(100 100)" />
</svg>
